PathFileType	4	(X/Y/Z)	/Users/niels/Desktop/University/Third Semester/Perception and Action/Exam/Gymnastics Motion Tracking/Code for Gym Tracking/Analyzed Data/Backflip/backflip_good_idn_2_Sports2D/backflip_good_idn_2_Sports2D_px_person00.trc
DataRate	CameraRate	NumFrames	NumMarkers	Units	OrigDataRate	OrigDataStartFrame	OrigNumFrames
59.762675296655885	59.762675296655885	8	22	m	59.762675296655885	243	278
Frame#	Time	Hip			RHip			RKnee			RAnkle			RBigToe			RSmallToe			RHeel			LHip			LKnee			LAnkle			LBigToe			LSmallToe			LHeel			Neck			Head			Nose			RShoulder			RElbow			RWrist			LShoulder			LElbow			LWrist		
		X1	Y1	Z1	X2	Y2	Z2	X3	Y3	Z3	X4	Y4	Z4	X5	Y5	Z5	X6	Y6	Z6	X7	Y7	Z7	X8	Y8	Z8	X9	Y9	Z9	X10	Y10	Z10	X11	Y11	Z11	X12	Y12	Z12	X13	Y13	Z13	X14	Y14	Z14	X15	Y15	Z15	X16	Y16	Z16	X17	Y17	Z17	X18	Y18	Z18	X19	Y19	Z19	X20	Y20	Z20	X21	Y21	Z21	X22	Y22	Z22
243	4.066083032490974	0.9404094748864792	-0.3923101042936353	0.0	0.9367423432287306	-0.39140388554736627	0.0	0.8878780812244399	-0.48315687240945565	0.0	0.8205834429686606	-0.5465929401700623	0.0	0.8252393561761108	-0.5937625499243787	0.0	0.8169589476589214	-0.5877860637072689	0.0	0.8055631594049937	-0.5477136218665789	0.0	0.943588809567537	-0.3972617504003118	0.0	0.8919543030202319	-0.4844277480372175	0.0	0.8270125525739379	-0.5382784148559646	0.0	0.8305128071149882	-0.5806439799392122	0.0	0.8339326400238495	-0.5716017914332225	0.0	0.8107957860199888	-0.540480792347837	0.0	1.0725525399035776	-0.4222269238617668	0.0	1.1284622350767628	-0.44060077189632646	0.0	1.0944232838984116	-0.457264699022445	0.0	1.0523203834695039	-0.41406309223150306	0.0	0.9882123818924237	-0.44584277091027424	0.0	0.9585347596608081	-0.49745857206396277	0.0	1.0610646497327982	-0.4207754980729824	0.0	1.0061912872561474	-0.4624343533971154	0.0	0.9768837234982592	-0.5059481181732348	0.0
244	4.082815884476534	0.9359640596124705	-0.4052378752337649	0.0	0.9323090080697888	-0.40403712309633993	0.0	0.8873230126254783	-0.4974014118978264	0.0	0.8262385274136901	-0.5709974215205728	0.0	0.8367706993436738	-0.6187879229646001	0.0	0.8280195865268145	-0.6134720782342667	0.0	0.8111644666777095	-0.574580030848793	0.0	0.939438895245147	-0.40992646509088526	0.0	0.8909594575163705	-0.4989352233867798	0.0	0.832254750456645	-0.5623775029254169	0.0	0.841955733335654	-0.6040286089760647	0.0	0.8441789699367086	-0.595770697265177	0.0	0.8152015478441418	-0.5675008157063587	0.0	1.0702065605608884	-0.4216032566954532	0.0	1.1292234935565335	-0.4362249017584643	0.0	1.0951139030333374	-0.4550158038574133	0.0	1.0503679072151455	-0.4145364692662294	0.0	0.9919012749415359	-0.4542893334727551	0.0	0.9704833116986712	-0.5082578848888964	0.0	1.0587135244089512	-0.4213739588275891	0.0	1.0111421917459849	-0.4694447539544393	0.0	0.9888108815356056	-0.515319953315394	0.0
245	4.0995487364620935	0.9318167914826101	-0.41900431031543345	0.0	0.9281654305410251	-0.417553726390719	0.0	0.8872904786226606	-0.5125352217774587	0.0	0.8327710311717341	-0.5947137405015277	0.0	0.8486532384828732	-0.6420754213932433	0.0	0.8396742795459359	-0.6374085933111328	0.0	0.8178915425792848	-0.600509243911459	0.0	0.9355241474693781	-0.4233100245615294	0.0	0.8906718689617733	-0.5141882971720242	0.0	0.8384276795334902	-0.5858876235913558	0.0	0.8538872524058642	-0.6259994555727744	0.0	0.8547860777561165	-0.6183855502308219	0.0	0.8209019929540106	-0.5937402631627543	0.0	1.0665438426888798	-0.42195407481549524	0.0	1.1282043232241945	-0.4332386371518819	0.0	1.0941541796223018	-0.4536244213717948	0.0	1.0474517648921071	-0.41609030877852377	0.0	0.9959987065633213	-0.4626996352241379	0.0	0.9837179216739721	-0.5177283309199556	0.0	1.0553358216109214	-0.4227413788943382	0.0	1.0161278034997094	-0.4760332440096002	0.0	1.0016349637848279	-0.5231555406354261	0.0
246	4.116281588447653	0.9279951017677832	-0.4335866235921433	0.0	0.9243386498893965	-0.4319374823108925	0.0	0.8877465229514406	-0.5284956365623773	0.0	0.8397840461786751	-0.6176485195464014	0.0	0.8604262991646566	-0.6634747500798691	0.0	0.8514532915534343	-0.6593887289349726	0.0	0.8253170156753984	-0.6253196589462033	0.0	0.9318805455624278	-0.4374319904025057	0.0	0.8910714826968849	-0.5301447038102824	0.0	0.8451920296494205	-0.6086899911570773	0.0	0.8657815944526411	-0.6466249080472568	0.0	0.8652706393645375	-0.639486691355503	0.0	0.8275709960946326	-0.6189597249179138	0.0	1.0617525390708331	-0.4234029365072684	0.0	1.125563238193375	-0.4316981367575019	0.0	1.0917656325947926	-0.453247654260133	0.0	1.0436905162510124	-0.4187995647624872	0.0	1.0005194161252975	-0.47094796495211566	0.0	0.9979699086765071	-0.5254907043427502	0.0	1.0510469417869368	-0.4249499763981141	0.0	1.0210689605906456	-0.48213137634971204	0.0	1.0150672855666372	-0.5292018975657168	0.0
247	4.133014440433213	0.9245333460222722	-0.4489374107210159	0.0	0.9208655458891839	-0.4471560928468547	0.0	0.8886144378621501	-0.545184348596737	0.0	0.846927740556068	-0.6397106440644472	0.0	0.8717607122909986	-0.6827955043285913	0.0	0.8630047491748066	-0.6791852460549627	0.0	0.8330678348704331	-0.6488290571729736	0.0	0.9285606964729546	-0.45229029831247536	0.0	0.8920801391465993	-0.5467269981339853	0.0	0.8522249317376993	-0.6307104823479139	0.0	0.8771897921525215	-0.666051252260672	0.0	0.8752284391704985	-0.6592066822771493	0.0	0.8348980070866134	-0.6429348558667565	0.0	1.0560266605079218	-0.42603809909317075	0.0	1.12145472735212	-0.43157400561457665	0.0	1.0881838790007676	-0.45398573722482716	0.0	1.03920208978102	-0.4227137161278515	0.0	1.0054267346313264	-0.47887235978730747	0.0	1.012842078788341	-0.5312166443227022	0.0	1.0459621112554147	-0.4280723430755329	0.0	1.025852586517164	-0.4876720869920969	0.0	1.0287121775962256	-0.5332564335731731	0.0
248	4.149747292418772	0.921461981247794	-0.4649883743101473	0.0	0.9177800975713432	-0.4631585243040521	0.0	0.8897879465609293	-0.562475025947773	0.0	0.8539160771539186	-0.6607820544729098	0.0	0.882461521538606	-0.6997599006560717	0.0	0.8741046783694916	-0.6965034331467541	0.0	0.8408532618480017	-0.6708144243590632	0.0	0.9256148065001633	-0.4678565958508429	0.0	0.8935855509282666	-0.5638318164798514	0.0	0.8592314857848334	-0.6519045012576685	0.0	0.8877589249569022	-0.6844675364555477	0.0	0.884345309589314	-0.6777356367524509	0.0	0.8426160175859327	-0.6654216474227554	0.0	1.0495632295177537	-0.42990812267863726	0.0	1.1160376670956471	-0.43278452405257545	0.0	1.083641659523007	-0.4558892228285563	0.0	1.0340992457667428	-0.42785893835161365	0.0	1.010613604739215	-0.48628890218314014	0.0	1.027825995049791	-0.5346755720375134	0.0	1.040199874359987	-0.43217352197287234	0.0	1.030335005350046	-0.49259829227801216	0.0	1.0420947572077217	-0.5351942985029955	0.0
249	4.166480144404331	0.9188026446505989	-0.4816570760772757	0.0	0.9151038803538852	-0.4798719523277862	0.0	0.8911451846133404	-0.5802144840352474	0.0	0.8605362529361196	-0.6806893552825289	0.0	0.8924551820914799	-0.7139696372584299	0.0	0.8846513506990289	-0.7109486905341799	0.0	0.8484802081132088	-0.6909845575376591	0.0	0.9230800247487035	-0.4840792752557452	0.0	0.8954681551077983	-0.5813324889335842	0.0	0.8659557891717394	-0.6722385482322755	0.0	0.897228220026189	-0.7020616752999733	0.0	0.8923933616638577	-0.6952799403092887	0.0	0.8505220233694986	-0.686124043196559	0.0	1.0425610338003115	-0.43501829128394814	0.0	1.1094860527962347	-0.4352293143709096	0.0	1.0783568050443895	-0.45895907321209706	0.0	1.028490573685103	-0.434227632753627	0.0	1.015897956344847	-0.49300865228609725	0.0	1.0423268156974972	-0.5357605619688448	0.0	1.0338915991701318	-0.43730891553925133	0.0	1.034356452150991	-0.49687702214765367	0.0	1.0547011196509177	-0.5349950257778031	0.0
250	4.183212996389891	0.9165697845209909	-0.49884305854681343	0.0	0.9128418842984816	-0.4971946465940237	0.0	0.8925616885593166	-0.598221807602238	0.0	0.8666545940212823	-0.6991878022821142	0.0	0.9017744283967519	-0.7248950506296974	0.0	0.8946506564703218	-0.7220171939086739	0.0	0.8558567345420208	-0.7089694313188304	0.0	0.9209823544086726	-0.5008841927021294	0.0	0.8976191910579051	-0.5990734894633503	0.0	0.872191095313061	-0.6916753380765133	0.0	0.9054221039619689	-0.7189789058033431	0.0	0.899223615552192	-0.7120193931480493	0.0	0.8584876036107141	-0.7046752643032232	0.0	1.0352146493246044	-0.4413265616501615	0.0	1.1019867833069377	-0.4388052270322689	0.0	1.0725216145523642	-0.4631461140267799	0.0	1.0224818202904835	-0.4417642159118324	0.0	1.0210337894079236	-0.49886143008945727	0.0	1.0557026991986116	-0.5345068920860085	0.0	1.0271874865042678	-0.44352012198953955	0.0	1.0377548068287332	-0.5005027558077407	0.0	1.0660134820553	-0.5327613576300247	0.0
